HIERARCHY
ROOT Junyuan_V1:Solving:Hips
{
	OFFSET 0.000000 0.000000 0.000000
	CHANNELS 6 Xposition Yposition Zposition Xrotation Yrotation Zrotation
	JOINT Junyuan_V1:Solving:Spine
	{
		OFFSET 0.000000 -8.943189 2.778120
		CHANNELS 6 Xposition Yposition Zposition Xrotation Yrotation Zrotation
		JOINT Junyuan_V1:Solving:Spine1
		{
			OFFSET 0.000000 -9.944814 1.753542
			CHANNELS 6 Xposition Yposition Zposition Xrotation Yrotation Zrotation
			JOINT Junyuan_V1:Solving:Spine2
			{
				OFFSET 0.000000 -10.059801 0.880121
				CHANNELS 6 Xposition Yposition Zposition Xrotation Yrotation Zrotation
				JOINT Junyuan_V1:Solving:Spine3
				{
					OFFSET 0.000000 -10.098228 0.000000
					CHANNELS 6 Xposition Yposition Zposition Xrotation Yrotation Zrotation
					JOINT Junyuan_V1:Solving:Neck
					{
						OFFSET 0.000000 -12.983437 -1.298342
						CHANNELS 6 Xposition Yposition Zposition Xrotation Yrotation Zrotation
						JOINT Junyuan_V1:Solving:Neck1
						{
							OFFSET 0.000000 -8.085114 -0.707354
							CHANNELS 6 Xposition Yposition Zposition Xrotation Yrotation Zrotation
							JOINT Junyuan_V1:Solving:Head
							{
								OFFSET 0.000000 -7.992695 -1.409326
								CHANNELS 6 Xposition Yposition Zposition Xrotation Yrotation Zrotation
								JOINT Junyuan_V1:Solving:HeadEnd
								{
									OFFSET 0.000000 -9.728081 0.000002
									CHANNELS 6 Xposition Yposition Zposition Xrotation Yrotation Zrotation
									End Site
									{
										OFFSET 0.000000 -9.728081 0.000002
									}
								}
							}
						}
					}
					JOINT Junyuan_V1:Solving:RightShoulder
					{
						OFFSET 0.000000 -9.273884 -6.154356
						CHANNELS 6 Xposition Yposition Zposition Xrotation Yrotation Zrotation
						JOINT Junyuan_V1:Solving:RightArm
						{
							OFFSET -19.110832 -0.000008 0.000000
							CHANNELS 6 Xposition Yposition Zposition Xrotation Yrotation Zrotation
							JOINT Junyuan_V1:Solving:RightForeArm
							{
								OFFSET -27.916382 -0.000008 0.000000
								CHANNELS 6 Xposition Yposition Zposition Xrotation Yrotation Zrotation
								JOINT Junyuan_V1:Solving:RightHand
								{
									OFFSET -21.757072 -0.000008 0.000000
									CHANNELS 6 Xposition Yposition Zposition Xrotation Yrotation Zrotation
									JOINT Junyuan_V1:Solving:RightHandThumb1
									{
										OFFSET -3.656471 2.766285 -2.718907
										CHANNELS 6 Xposition Yposition Zposition Xrotation Yrotation Zrotation
										End Site
										{
											OFFSET -5.307442 0.000000 -5.356520
										}
									}
									JOINT Junyuan_V1:Solving:RightHandMiddle1
									{
										OFFSET -9.750572 -0.000004 0.062504
										CHANNELS 6 Xposition Yposition Zposition Xrotation Yrotation Zrotation
										End Site
										{
											OFFSET -7.540642 -0.000004 0.000000
										}
									}
								}
							}
						}
					}
					JOINT Junyuan_V1:Solving:LeftShoulder
					{
						OFFSET 0.000000 -9.273884 -6.154356
						CHANNELS 6 Xposition Yposition Zposition Xrotation Yrotation Zrotation
						JOINT Junyuan_V1:Solving:LeftArm
						{
							OFFSET 19.110832 -0.000008 0.000000
							CHANNELS 6 Xposition Yposition Zposition Xrotation Yrotation Zrotation
							JOINT Junyuan_V1:Solving:LeftForeArm
							{
								OFFSET 27.916382 -0.000008 0.000000
								CHANNELS 6 Xposition Yposition Zposition Xrotation Yrotation Zrotation
								JOINT Junyuan_V1:Solving:LeftHand
								{
									OFFSET 21.757072 -0.000008 0.000000
									CHANNELS 6 Xposition Yposition Zposition Xrotation Yrotation Zrotation
									JOINT Junyuan_V1:Solving:LeftHandThumb1
									{
										OFFSET 3.656471 2.766285 -2.718907
										CHANNELS 6 Xposition Yposition Zposition Xrotation Yrotation Zrotation
										End Site
										{
											OFFSET 5.307442 0.000000 -5.356520
										}
									}
									JOINT Junyuan_V1:Solving:LeftHandMiddle1
									{
										OFFSET 9.750572 -0.000004 0.062504
										CHANNELS 6 Xposition Yposition Zposition Xrotation Yrotation Zrotation
										End Site
										{
											OFFSET 7.540642 -0.000004 0.000000
										}
									}
								}
							}
						}
					}
				}
			}
		}
	}
	JOINT Junyuan_V1:Solving:RightUpLeg
	{
		OFFSET -8.521003 0.000000 0.000000
		CHANNELS 6 Xposition Yposition Zposition Xrotation Yrotation Zrotation
		JOINT Junyuan_V1:Solving:RightLeg
		{
			OFFSET 0.000000 41.622898 -0.000006
			CHANNELS 6 Xposition Yposition Zposition Xrotation Yrotation Zrotation
			JOINT Junyuan_V1:Solving:RightFoot
			{
				OFFSET 0.000000 37.258389 -0.000006
				CHANNELS 6 Xposition Yposition Zposition Xrotation Yrotation Zrotation
				JOINT Junyuan_V1:Solving:RightForeFoot
				{
					OFFSET 0.000000 3.234154 -0.000000
					CHANNELS 6 Xposition Yposition Zposition Xrotation Yrotation Zrotation
					JOINT Junyuan_V1:Solving:RightToeBase
					{
						OFFSET 0.000000 0.000000 -12.665958
						CHANNELS 6 Xposition Yposition Zposition Xrotation Yrotation Zrotation
						JOINT Junyuan_V1:Solving:RightToeBaseEnd
						{
							OFFSET 0.000000 0.000000 -2.833065
							CHANNELS 6 Xposition Yposition Zposition Xrotation Yrotation Zrotation
							End Site
							{
								OFFSET 0.000000 -2.833061 0.000002
							}
						}
					}
				}
			}
		}
	}
	JOINT Junyuan_V1:Solving:LeftUpLeg
	{
		OFFSET 8.521003 0.000000 0.000000
		CHANNELS 6 Xposition Yposition Zposition Xrotation Yrotation Zrotation
		JOINT Junyuan_V1:Solving:LeftLeg
		{
			OFFSET 0.000000 41.622898 -0.000006
			CHANNELS 6 Xposition Yposition Zposition Xrotation Yrotation Zrotation
			JOINT Junyuan_V1:Solving:LeftFoot
			{
				OFFSET 0.000000 37.258389 -0.000006
				CHANNELS 6 Xposition Yposition Zposition Xrotation Yrotation Zrotation
				JOINT Junyuan_V1:Solving:LeftForeFoot
				{
					OFFSET 0.000000 3.234154 -0.000000
					CHANNELS 6 Xposition Yposition Zposition Xrotation Yrotation Zrotation
					JOINT Junyuan_V1:Solving:LeftToeBase
					{
						OFFSET 0.000000 0.000000 -12.665958
						CHANNELS 6 Xposition Yposition Zposition Xrotation Yrotation Zrotation
						JOINT Junyuan_V1:Solving:LeftToeBaseEnd
						{
							OFFSET 0.000000 0.000000 -4.326123
							CHANNELS 6 Xposition Yposition Zposition Xrotation Yrotation Zrotation
							End Site
							{
								OFFSET 0.000000 -4.326126 0.000000
							}
						}
					}
				}
			}
		}
	}
}
MOTION
Frames: 4
Frame Time: 0.041667
-0.366058 50.376778 -87.925369 90.725888 171.440262 1.336103 0.000002 -8.943181 2.778123 10.272281 -0.348285 -2.097415 -0.000000 -9.944840 1.753554 -1.035747 0.148161 -0.193230 0.000001 -10.059802 0.880108 -5.446278 2.057636 -0.936213 -0.000001 -10.098233 -0.000015 -3.373269 0.451951 -0.558767 -0.000002 -12.983451 -1.298348 6.048874 -0.181841 5.220862 0.000001 -8.085112 -0.707364 -4.382197 -0.119849 -1.725000 0.000002 -7.992702 -1.409323 -2.533149 0.836914 -2.225689 0.000000 -9.728081 0.000004 0.000000 -0.000002 -0.000000 -0.000003 -9.273880 -6.154366 -0.000004 20.820175 12.215057 -19.110819 -0.000021 0.000008 2.130367 -27.307866 -88.340267 -27.916389 0.000001 0.000004 15.859713 -23.574104 6.482171 -21.757086 0.000005 -0.000007 0.204524 0.504540 -22.065939 -3.656448 2.766279 -2.718906 0.000005 0.000003 0.000001 -9.750585 -0.000007 0.062511 -0.000000 0.000001 0.000003 -0.000002 -9.273865 -6.154366 -0.000002 -17.097861 -11.702764 19.110813 -0.000007 0.000013 -4.903408 36.347828 90.223616 27.916386 0.000002 0.000016 15.381934 19.888717 -5.346720 21.757082 -0.000015 -0.000000 -0.143730 0.397952 19.859291 3.656460 2.766295 -2.718911 0.000002 -0.000002 0.000005 9.750570 0.000014 0.062501 -0.000003 -0.000000 -0.000003 -8.521002 -0.000023 0.000003 5.449230 5.995524 -3.871600 -0.000000 41.622925 -0.000010 0.049751 0.000000 0.000000 -0.000001 37.258408 -0.000013 3.843791 -0.036679 9.434039 0.000001 3.234147 -0.000002 -0.000001 0.000000 -0.000001 0.000001 0.000003 -12.665976 -5.079365 0.000001 -0.000000 -0.000001 -0.000008 -2.833062 -0.000000 0.000000 -0.000000 8.521007 0.000001 0.000010 -6.069568 2.572218 -11.869032 -0.000002 41.622890 -0.000009 21.408156 0.000001 -0.000001 -0.000001 37.258404 -0.000001 2.687672 15.017747 14.999854 -0.000005 3.234146 0.000007 0.000001 -0.000000 -0.000000 -0.000000 -0.000001 -12.665962 -2.558841 0.000000 0.000001 0.000002 -0.000008 -4.326124 -0.000000 -0.000000 -0.000000 
-0.393506 50.338116 -87.955872 90.786724 171.438745 1.145135 -0.000003 -8.943185 2.778116 10.384632 -0.375850 -2.008117 -0.000002 -9.944780 1.753529 -1.007196 0.145052 -0.186300 0.000000 -10.059784 0.880114 -5.452262 2.016583 -0.925211 -0.000002 -10.098214 -0.000004 -3.414090 0.439255 -0.516545 -0.000001 -12.983469 -1.298334 6.059502 -0.172745 5.215255 -0.000002 -8.085138 -0.707328 -4.377442 -0.135813 -1.713136 -0.000001 -7.992691 -1.409329 -2.544646 0.840279 -2.235630 0.000002 -9.728081 -0.000000 -0.000000 0.000000 0.000000 -0.000003 -9.273903 -6.154351 -0.000007 20.762580 12.249757 -19.110811 -0.000007 0.000009 2.067783 -27.494766 -88.342295 -27.916391 -0.000003 0.000009 16.964812 -23.598232 6.962574 -21.757071 -0.000009 -0.000005 0.183439 0.459986 -21.742389 -3.656423 2.766291 -2.718907 -0.000004 -0.000002 -0.000006 -9.750535 0.000007 0.062508 -0.000004 -0.000001 -0.000001 0.000002 -9.273903 -6.154351 -0.000007 -17.085032 -11.740967 19.110817 -0.000013 0.000006 -5.089095 36.625998 90.468082 27.916393 -0.000005 0.000017 15.799640 20.033898 -5.536778 21.757042 -0.000012 0.000004 -0.102337 0.289852 19.447570 3.656463 2.766278 -2.718903 -0.000001 0.000002 -0.000000 9.750577 0.000019 0.062514 -0.000009 0.000002 -0.000003 -8.521002 -0.000003 0.000001 5.527875 6.082872 -3.678990 0.000002 41.622883 -0.000006 0.032676 0.000000 -0.000000 0.000000 37.258389 -0.000002 3.900623 -0.109119 9.513765 -0.000002 3.234146 -0.000005 -0.000000 0.000000 -0.000000 0.000001 -0.000006 -12.665964 -5.328955 -0.000001 -0.000002 0.000002 0.000000 -2.833058 -0.000000 0.000000 -0.000002 8.520999 0.000010 -0.000005 -6.596943 2.593658 -11.681891 0.000005 41.622883 -0.000005 22.434462 0.000001 -0.000000 -0.000004 37.258377 -0.000008 3.053538 15.205299 15.161705 -0.000001 3.234154 0.000007 -0.000003 -0.000000 -0.000003 -0.000003 0.000009 -12.665948 -2.738069 -0.000000 -0.000000 0.000002 -0.000015 -4.326131 0.000001 -0.000001 -0.000000 
-0.420347 50.297787 -87.978073 90.836065 171.439319 1.000971 0.000002 -8.943202 2.778120 10.495369 -0.406613 -1.967902 -0.000001 -9.944811 1.753547 -0.985161 0.142848 -0.182434 -0.000001 -10.059775 0.880113 -5.456294 1.961828 -0.912030 -0.000001 -10.098228 0.000005 -3.450962 0.425257 -0.469784 -0.000000 -12.983400 -1.298340 6.073864 -0.161441 5.227633 0.000001 -8.085112 -0.707354 -4.388316 -0.108523 -1.721258 0.000001 -7.992672 -1.409328 -2.556590 0.843513 -2.239536 -0.000000 -9.728104 0.000001 -0.000000 -0.000000 -0.000000 -0.000000 -9.273853 -6.154353 -0.000005 20.720449 12.305612 -19.110823 -0.000018 0.000006 1.984519 -27.701082 -88.359521 -27.916378 -0.000008 0.000005 18.063270 -23.601302 7.439419 -21.757059 -0.000001 -0.000003 0.131621 0.334834 -21.459490 -3.656481 2.766277 -2.718895 0.000003 0.000003 -0.000002 -9.750572 -0.000005 0.062505 0.000004 -0.000001 -0.000000 -0.000002 -9.273834 -6.154352 -0.000006 -17.076451 -11.780269 19.110811 0.000001 0.000013 -5.249458 37.042981 90.665570 27.916376 0.000002 0.000009 16.220122 20.257159 -5.751560 21.757055 -0.000005 0.000001 -0.065910 0.190642 19.071244 3.656481 2.766291 -2.718907 -0.000004 -0.000003 0.000002 9.750596 0.000007 0.062505 -0.000002 -0.000001 0.000001 -8.521001 -0.000015 0.000003 5.606028 6.153331 -3.532808 -0.000000 41.622910 0.000010 0.004165 -0.000000 0.000000 0.000003 37.258389 0.000005 3.940684 -0.170287 9.600020 0.000002 3.234146 0.000016 0.000002 0.000002 -0.000002 0.000001 -0.000001 -12.665956 -5.472066 0.000000 -0.000001 -0.000000 -0.000007 -2.833062 -0.000000 0.000000 -0.000003 8.521004 -0.000028 -0.000003 -7.093466 2.571876 -11.563213 -0.000007 41.622902 -0.000000 23.380111 0.000000 0.000003 0.000004 37.258377 -0.000009 3.242707 15.327747 15.586208 -0.000001 3.234154 0.000007 -0.000002 0.000001 0.000001 -0.000001 -0.000000 -12.665964 -2.469294 0.000001 -0.000000 -0.000004 -0.000008 -4.326122 -0.000001 -0.000000 0.000000 
-0.445813 50.256092 -87.993881 90.872894 171.447556 0.904104 0.000000 -8.943174 2.778111 10.596221 -0.434171 -1.976166 0.000000 -9.944808 1.753547 -0.968237 0.139873 -0.171693 -0.000000 -10.059810 0.880112 -5.461275 1.897018 -0.902025 -0.000001 -10.098233 0.000005 -3.481246 0.408188 -0.406855 -0.000003 -12.983403 -1.298353 6.083728 -0.147470 5.225718 0.000001 -8.085091 -0.707329 -4.393993 -0.070459 -1.720589 0.000001 -7.992718 -1.409341 -2.566456 0.852432 -2.254068 -0.000001 -9.728088 -0.000002 0.000000 0.000001 0.000000 -0.000004 -9.273884 -6.154364 -0.000007 20.666651 12.356090 -19.110823 -0.000027 0.000009 1.904131 -27.896299 -88.381787 -27.916424 -0.000002 0.000010 19.123872 -23.606785 7.905412 -21.757078 -0.000011 -0.000001 0.084347 0.217434 -21.205241 -3.656432 2.766298 -2.718905 0.000006 0.000005 -0.000008 -9.750571 0.000010 0.062504 0.000001 0.000000 0.000001 -0.000000 -9.273895 -6.154364 -0.000005 -17.070656 -11.859491 19.110825 -0.000018 0.000009 -5.461955 37.274217 90.948627 27.916370 0.000001 0.000016 16.780455 20.421791 -6.006435 21.757061 -0.000014 -0.000001 -0.037547 0.110892 18.702801 3.656486 2.766270 -2.718907 0.000002 -0.000003 -0.000001 9.750594 -0.000006 0.062506 0.000006 0.000003 -0.000001 -8.521000 0.000017 0.000001 5.678618 6.211165 -3.431969 -0.000001 41.622906 -0.000013 -0.025977 0.000000 -0.000000 0.000000 37.258389 -0.000013 3.983599 -0.230376 9.682330 0.000000 3.234146 0.000004 0.000001 0.000000 -0.000001 0.000000 0.000006 -12.665954 -5.617050 0.000001 -0.000004 -0.000002 -0.000008 -2.833061 -0.000000 -0.000000 -0.000002 8.521002 0.000012 -0.000008 -7.567633 2.530175 -11.504296 -0.000003 41.622906 -0.000000 24.236464 0.000001 0.000002 0.000002 37.258392 0.000008 3.549741 15.489964 16.117886 -0.000003 3.234154 0.000000 -0.000002 -0.000002 -0.000001 0.000002 -0.000026 -12.665960 -2.773128 -0.000000 0.000000 0.000002 -0.000009 -4.326129 -0.000006 -0.000001 -0.000000 
